<svg xmlns="http://www.w3.org/2000/svg" id="b" data-name="Layer 2" viewBox="0 0 1136.7 407.28"><defs><style>.d{fill:#fff}</style></defs><g id="c" data-name="Layer 2"><path d="M1017.24 159.27h-21.33c-.64 0-1.16.53-1.16 1.17v29.11c0 .65-.52 1.17-1.16 1.17h-38.83c-.64 0-1.16-.53-1.16-1.17V160.5c0-.65-.52-1.17-1.16-1.17h-20.45c-.64 0-1.16.53-1.16 1.17v85.93c0 .65.52 1.17 1.16 1.17h20.84c.64 0 1.16-.53 1.16-1.17v-31.45c0-.65.52-1.17 1.16-1.17h38.8c.64 0 1.16.53 1.16 1.17v31.35c0 .65.52 1.17 1.16 1.17h20.97c.64 0 1.16-.53 1.16-1.17v-85.89c0-.65-.52-1.17-1.16-1.17zm-252.91 42.39c-18.22-14.3-35.5-27.86-53.31-41.84-.76-.6-1.88-.05-1.88.92v85.37c0 .65.52 1.17 1.16 1.17h20.6c.64 0 1.16-.53 1.16-1.17v-39.42c0-.97 1.1-1.52 1.87-.93 18.38 14.01 36.17 27.56 54.56 41.57.77.58 1.87.04 1.87-.93v-85.96c0-.65-.52-1.17-1.16-1.17h-21.83c-.64 0-1.16.53-1.16 1.17v40.29c0 .98-1.12 1.52-1.88.92zm282.93 44.02c-.54.77 0 1.84.95 1.84 7.85-.02 14.68-.15 21.5.09 3.25.11 5.23-1.01 6.97-3.64 4.58-6.89 9.33-13.67 14.35-20.96.45-.66 1.42-.67 1.9-.03 1.11 1.5 2.02 2.72 2.88 3.97 4.18 6.02 8.28 12.09 12.55 18.04.77 1.08 2.18 2.37 3.33 2.4 7.59.19 15.19.12 23.86.11.94 0 1.48-1.06.95-1.83-10.36-15-20.08-29.08-29.84-43.22a1.16 1.16 0 0 1 0-1.31c8.83-13.01 17.7-26.07 27.12-39.94.52-.77-.03-1.82-.96-1.82-7.53.03-14.15.16-20.75-.09-3.28-.12-5.21 1.12-6.93 3.7-3.9 5.84-7.96 11.56-12.15 17.57-.47.67-1.47.66-1.92-.02-4.15-6.16-7.98-11.94-11.97-17.61-.98-1.4-2.58-3.28-3.95-3.33-7.73-.29-15.48-.18-24.15-.16-.93 0-1.48 1.05-.96 1.82 9.45 14.02 18.36 27.24 27.3 40.51.27.4.26.93-.01 1.32-9.84 13.96-19.63 27.83-30.04 42.59zm-152.44-72.09c.42-.43.43-1.13 0-1.56-12.42-12.74-37.81-16.79-53.32-8.27-10.17 5.59-15.2 14.91-13.77 26.54 1.32 10.68 8.46 16.19 18.17 19.03 2.16.63 4.34 1.22 6.55 1.66 6 1.2 12.13 1.95 17.98 3.65 2.17.63 5.25 3.47 5.18 5.18-.1 2.28-2.42 5.44-4.6 6.43-3.06 1.38-6.89 1.58-10.36 1.45-8.19-.31-15.24-3.91-21.75-8.49-.42-.3-1-.27-1.39.07-4.13 3.6-8.16 7.11-12.86 11.21-.54.47-.51 1.34.07 1.76 1.4 1.03 2.74 1.98 3.97 3.05 15.75 13.73 39.89 16.31 55.82 5.92 9.38-6.12 13.94-14.83 12.55-25.92-1.42-11.35-8.98-17.55-19.63-20.02-6.89-1.6-13.96-2.39-20.92-3.73-3.84-.74-8.44-1.76-8.19-6.61.27-5.15 5.24-5.48 9.19-5.96 7.89-.98 14.87 1.83 21.67 5.5 1.3.7 3.93.83 4.84 0 3.79-3.4 7.23-7.2 10.77-10.89zm-412.16 56.42a1.14 1.14 0 0 0-.1 1.64c15.14 15.8 38.14 20.53 56.27 11.7 11.4-5.55 17.35-16.55 15.62-28.87-1.33-9.5-10.21-17.62-21.85-19.73-6-1.09-12.09-1.72-18.1-2.8-4.02-.72-8.63-1.89-8.18-7.05.42-4.85 5.25-5.08 8.98-5.6 7.7-1.07 14.55 1.55 21.11 5.35 1.17.68 3.47 1.22 4.15.61 4.03-3.66 7.79-7.61 12.54-12.43.54-.55.38-1.47-.32-1.81-7.47-3.59-14.02-7.44-21.1-9.63-12.17-3.77-24.37-2.73-35.19 4.64-8.32 5.66-12.42 13.86-11.25 24.08 1.14 9.95 7.44 15.7 16.48 18.83 2.72.94 5.55 1.65 8.39 2.2 5.69 1.1 11.55 1.55 17.05 3.21 2.44.73 5.69 3.67 5.82 5.77.13 2.12-2.73 5.36-5.06 6.45-2.87 1.35-6.78 1.92-9.83 1.18-7.66-1.86-15.11-4.58-23.41-7.23-.37-.12-.77-.04-1.07.21-3.01 2.55-6.86 5.81-10.96 9.28zm195.33 16.14c-15.64-28.98-30.9-57.27-46.43-86.04-.44-.81-1.61-.81-2.05 0l-46.68 86.06c-.43.79.16 1.75 1.06 1.72 3.09-.1 5.82-.34 8.43.11.05 0 .11.01.17.01 15.77.08 18.25-2.93 22.31-14.16 3.72-10.28 9.27-19.91 14.42-30.28.41-.83 1.58-.87 2.04-.07.23.4.41.72.57 1.05 6.69 13.38 13.32 26.79 20.14 40.1.7 1.36 2.44 3.03 3.76 3.08 6.83.27 13.67.16 21.24.15.88 0 1.44-.94 1.02-1.72zm-518.12-19.51c-.47-.47-1.24-.45-1.69.04-11.96 13.22-23.88 26.13-35.45 39.35-6.05 6.91-10.34 14.92-12.9 24.03-.21.73.36 1.46 1.12 1.47 4.88.05 9.42.28 13.92-.07 15.31-1.2 27.94 4.8 39.37 14.15 3.6 2.95 7.03 6.14 10.31 9.45 19.5 19.62 39.1 39.15 58.36 59.01 24.94 25.7 55.31 36.59 90.53 32.26 49.04-6.03 87.57-48.41 88.66-98.04.84-38.38-14.05-69.18-48.29-88.76a21.517 21.517 0 0 0-10.47-2.87c-20.85-.2-38.16-.09-59.01-.06-.5 0-7.37-1.12-8.8-.05 2.47 2.12 7.54 7.89 9.72 10.28 5.92 6.51 11.9 13.04 17.13 20.09 2.44 3.29 4.47 4.86 8.69 4.75 20.43-.53 34.86 9.53 43.1 27.46 8.32 18.11 7.52 36.88-2.21 54.35-19.44 34.94-66.86 41.74-96.47 13.41-27.36-26.16-53.74-53.34-80.77-80.31-.47-.46-.45-1.22.03-1.67 1.85-1.72 3.95-3.68 6.07-5.65.48-.45.49-1.21.03-1.67l-30.98-30.95zm140.68-108.15c.48-.77-.09-1.77-1-1.78-4.99-.02-8.8-.08-12.61.02-13.18.34-24.99-3.82-35.35-11.62-6.62-4.98-12.78-10.68-18.64-16.55-20.46-20.52-40.05-41.95-61.21-61.71C151.67 8.11 127.33-.43 100.27.12 35.71 1.42-11.93 61.98 2.8 124.85c6.56 28.03 22.53 49.53 49.14 62.89 3.55 1.79 7.88 2.77 11.87 2.83 18.66.28 37.32.11 55.98.1h2.28c1.01 0 1.53-1.2.86-1.95-10.44-11.53-20.53-22.72-30.73-33.81-.75-.81-2.37-1.22-3.56-1.17-12.1.47-21.48-5.45-29.74-13.22-22.69-21.33-25.43-71.27 17-91.79 24.6-11.89 53.11-5.96 74.71 15.19 17.38 17.01 34.52 34.27 51.79 51.39 9.53 9.45 19.11 18.84 28.84 28.42.45.44.46 1.17.03 1.63-2.57 2.75-4.84 5.18-7.3 7.81-.43.47-.41 1.2.05 1.64 8.05 7.68 15.87 15.14 23.85 22.74.48.45 1.23.42 1.67-.07 16.83-19.08 36.7-35.94 51.04-59z" class="d"/><path d="M278.85 188.69c-.69.73-.19 1.95.81 1.96h.02c23.67.03 47.33.09 71 0 2.06 0 4.26-.73 6.15-1.63 43.16-20.74 64.36-66.98 52.09-113.47-14.95-56.64-74.68-88.8-130.71-70.31-21.43 7.07-38.3 20.14-50.73 38.06-.32.47-.26 1.11.15 1.5 9.09 8.91 17.88 17.53 26.68 26.15.5.49 1.3.43 1.73-.11.2-.25.41-.53.63-.8 13.91-17.76 31.96-27.36 54.7-27.1 37.19.42 64.01 33.01 57.18 68.89-4.57 24.01-24.84 43.31-51.19 41.98-2.2-.11-5.26-.11-6.53 1.19-10.72 10.96-21.16 22.2-31.96 33.7zM126.7 218.58c.68-.69.26-1.86-.7-1.97-.55-.06-.93-.1-1.32-.1-21.82 0-43.64-.03-65.46.14-2.56.02-5.58.52-7.58 1.94-9.31 6.59-19.8 12.28-27.23 20.64-38.14 42.92-30.66 110.66 15.85 147.17 20.92 16.43 44.95 22.59 71.57 20.48 31.03-2.46 53.96-17.91 72.3-41.88.36-.47.31-1.14-.12-1.55-8.83-8.59-17.56-17.09-26.43-25.71-.47-.46-1.23-.44-1.67.05-.68.76-1.51 1.68-2.33 2.62-17.84 20.62-42.16 28.54-68.93 21.26-28.99-7.88-46.41-38.24-40.64-68.4 4.31-22.51 18.81-39.19 39.14-40.81 10.77-.85 16.95-5.36 23.2-12.78 6.06-7.19 12.97-13.66 20.32-21.1zm-13.3-101.49c-.6.07-1.05.6-1.03 1.2.47 14.78 5.77 27.18 16.17 37.64 39.21 39.47 78.53 78.83 117.37 118.66 14.67 15.04 32.05 18.97 51.79 16.59.65-.08 1.11-.69 1.02-1.34-2.69-17.82-10.28-33.08-23.28-46.04-36.34-36.21-72.59-72.52-108.36-109.3-15.02-15.44-32.74-19.98-53.67-17.41z" class="d"/></g></svg>