<svg xmlns="http://www.w3.org/2000/svg" width="428" height="92" viewBox="0 0 214 46" fill="none">
<g clip-path="url(#clip0_3080_51)" style="fill:none;stroke:none;color:rgb(11, 11, 11);stroke-width:1px;stroke-linecap:butt;stroke-linejoin:miter;opacity:1;font-family:&quot;Anthropic Sans&quot;, -apple-system, BlinkMacSystemFont, &quot;Segoe UI&quot;, sans-serif;font-size:16px;font-weight:400;text-anchor:start;dominant-baseline:auto">
<path d="M13.0382 33.3611C12.5722 37.6481 10.9632 41.8841 7.75319 45.1951C7.58515 45.3637 7.35723 45.4591 7.11913 45.4605C6.88104 45.4618 6.65208 45.3689 6.48219 45.2021C3.28219 41.9651 1.35219 37.9431 0.797193 33.7511C0.719193 33.1601 1.21219 32.6341 1.85719 32.6261L12.1872 32.4901C12.6972 32.4841 13.0912 32.8921 13.0402 33.3611H13.0382Z" fill="#0067EB" style="fill:rgb(0, 103, 235);stroke:none;color:rgb(11, 11, 11);stroke-width:1px;stroke-linecap:butt;stroke-linejoin:miter;opacity:1;font-family:&quot;Anthropic Sans&quot;, -apple-system, BlinkMacSystemFont, &quot;Segoe UI&quot;, sans-serif;font-size:16px;font-weight:400;text-anchor:start;dominant-baseline:auto"/>
<path d="M52.5077 25.4059C48.4757 17.8679 48.7607 9.25494 52.8707 2.16294C53.1947 1.60494 52.7637 0.931941 52.0807 0.931941H19.9807C18.8727 0.926447 17.8006 1.32458 16.9647 2.05194C11.2127 7.12694 9.72171 14.9689 13.2497 21.5589C17.2697 29.0589 16.9497 37.6359 12.7957 44.6639C12.4877 45.1839 12.8917 45.8199 13.5327 45.8199H45.3887C46.6867 45.8199 47.9347 45.3559 48.8737 44.5259L49.0637 44.3579C54.6187 39.4459 55.9167 31.7809 52.5077 25.4069V25.4059Z" fill="#0067EB" style="fill:rgb(0, 103, 235);stroke:none;color:rgb(11, 11, 11);stroke-width:1px;stroke-linecap:butt;stroke-linejoin:miter;opacity:1;font-family:&quot;Anthropic Sans&quot;, -apple-system, BlinkMacSystemFont, &quot;Segoe UI&quot;, sans-serif;font-size:16px;font-weight:400;text-anchor:start;dominant-baseline:auto"/>
<path fill-rule="evenodd" clip-rule="evenodd" d="M37.0229 31.3879C38.1709 30.9609 39.0529 30.3569 39.6729 29.5779H39.6699C40.2879 28.7989 40.5969 27.8819 40.5969 26.8279C40.5969 25.6369 40.2589 24.7039 39.5839 24.0319C38.9056 23.3572 38.066 22.8673 37.1449 22.6089C36.1959 22.3339 35.0209 22.0979 33.6189 21.8989C32.6589 21.7769 31.9009 21.6489 31.3399 21.5189C30.7799 21.3889 30.3179 21.1839 29.9549 20.9009C29.5909 20.6179 29.4109 20.2329 29.4109 19.7439C29.4109 19.1309 29.7039 18.6419 30.2899 18.2759C30.8749 17.9089 31.6799 17.7259 32.7029 17.7259C33.8249 17.7259 34.7079 17.9699 35.3519 18.4589C35.9939 18.9489 36.3079 19.6289 36.2919 20.4989H40.0769C40.0769 19.3689 39.7729 18.3759 39.1629 17.5189C38.5519 16.6639 37.6819 16.0029 36.5529 15.5359C35.4219 15.0709 34.0889 14.8379 32.6029 14.8379C31.1179 14.8379 29.8259 15.0509 28.7299 15.4789C27.6319 15.9059 26.7859 16.5119 26.1939 17.2899C25.5999 18.0699 25.3019 18.9799 25.3019 20.0179C25.3019 21.2269 25.6659 22.1629 26.3919 22.8269C27.1072 23.4863 27.9741 23.959 28.9159 24.2029C29.8719 24.4539 31.0939 24.6809 32.5799 24.8789C33.4539 25.0019 34.1549 25.1299 34.6829 25.2689C35.2119 25.4059 35.6429 25.6169 35.9829 25.8989C36.3229 26.1809 36.4909 26.5689 36.4909 27.0559C36.4909 27.7139 36.1889 28.2259 35.5859 28.5929C34.9819 28.9579 34.1539 29.1409 33.0989 29.1409C31.8289 29.1409 30.8359 28.8829 30.1279 28.3629C29.4199 27.8429 29.0559 27.1319 29.0399 26.2309H25.1289C25.1289 27.3909 25.4549 28.4079 26.1079 29.2789C26.7589 30.1499 27.6749 30.8259 28.8539 31.3069C30.0349 31.7899 31.4239 32.0309 32.9759 32.0309C34.5269 32.0309 35.8769 31.8159 37.0229 31.3879Z" fill="#FBFBFD" style="fill:rgb(251, 251, 253);stroke:none;color:rgb(11, 11, 11);stroke-width:1px;stroke-linecap:butt;stroke-linejoin:miter;opacity:1;font-family:&quot;Anthropic Sans&quot;, -apple-system, BlinkMacSystemFont, &quot;Segoe UI&quot;, sans-serif;font-size:16px;font-weight:400;text-anchor:start;dominant-baseline:auto"/>
<path d="M73.9762 29.5959C71.1042 29.5959 69.1643 29.0799 68.1562 28.0479C67.1562 27.0079 66.6562 25.5399 66.6562 23.6439H70.7363C70.7363 25.0279 71.0283 25.9079 71.6123 26.2839C72.2043 26.6519 72.9803 26.8359 73.9403 26.8359C74.9083 26.8359 75.6842 26.6919 76.2682 26.4039C76.8522 26.1079 77.1442 25.6559 77.1442 25.0479C77.1442 24.3279 76.7443 23.8359 75.9443 23.5719C75.1443 23.3079 74.0403 23.0359 72.6323 22.7559C70.4003 22.2839 68.8482 21.7439 67.9762 21.1359C67.1042 20.5279 66.6683 19.5279 66.6683 18.1359C66.6683 16.7679 67.1803 15.5959 68.2043 14.6199C69.2283 13.6439 71.1283 13.1559 73.9043 13.1559C76.6963 13.1559 78.6002 13.6879 79.6162 14.7519C80.6322 15.8159 81.1403 17.2399 81.1403 19.0239H77.0602C77.0602 17.6799 76.7563 16.8279 76.1483 16.4679C75.5483 16.0999 74.7843 15.9159 73.8563 15.9159C72.8723 15.9159 72.0842 16.0679 71.4922 16.3719C70.9082 16.6759 70.6162 17.1079 70.6162 17.6679C70.6162 18.4199 71.0243 18.9279 71.8403 19.1919C72.6563 19.4559 73.7603 19.7279 75.1523 20.0079C77.4643 20.4879 79.0443 21.0079 79.8923 21.5679C80.7403 22.1279 81.1643 23.0999 81.1643 24.4839C81.1643 25.8999 80.6643 27.1079 79.6643 28.1079C78.6723 29.0999 76.7762 29.5959 73.9762 29.5959ZM90.1582 29.6319C87.4702 29.6319 85.5902 28.9839 84.5182 27.6879C83.4382 26.3839 82.8983 24.6119 82.8983 22.3719C82.8983 20.0839 83.4423 18.3039 84.5303 17.0319C85.6103 15.7599 87.4623 15.1239 90.0863 15.1239C92.7823 15.1239 94.6503 15.7679 95.6903 17.0559C96.7223 18.3519 97.2383 20.1239 97.2383 22.3719C97.2383 22.8119 97.2103 23.2119 97.1543 23.5719H86.4263V21.1359H93.1582C93.0702 19.9199 92.8223 19.0679 92.4143 18.5799C91.8623 18.0119 91.0863 17.7279 90.0863 17.7279C89.1183 17.7279 88.3263 18.0399 87.7103 18.6639C87.1023 19.2799 86.7983 20.5199 86.7983 22.3839C86.7983 24.2079 87.1023 25.4359 87.7103 26.0679C88.3103 26.7079 89.1262 27.0279 90.1582 27.0279V29.6319ZM90.1582 27.0279C90.7582 27.0279 91.2543 26.9519 91.6463 26.7999C92.0463 26.6319 92.3663 26.3639 92.6063 25.9959C92.8303 25.6119 93.0263 25.1679 93.1943 24.6639L96.8063 25.6839C96.6303 26.6199 96.2503 27.3719 95.6663 27.9399C95.0743 28.5159 94.3663 28.9399 93.5423 29.2119C92.7103 29.4919 91.5822 29.6319 90.1582 29.6319V27.0279ZM106.18 29.6799C104.916 29.6799 103.844 29.4119 102.964 28.8759C102.092 28.3399 101.656 27.3799 101.656 25.9959V18.0519H98.4043V15.2799H101.656V12.0279H105.7V15.2799H110.08V18.0519H105.7V25.1079C105.7 25.8759 105.864 26.3799 106.192 26.6199C106.52 26.8599 106.976 26.9799 107.56 26.9799C108.152 26.9799 108.732 26.8799 109.3 26.6799V29.3439C108.308 29.5679 107.268 29.6799 106.18 29.6799ZM118.906 29.6799C117.642 29.6799 116.57 29.4119 115.69 28.8759C114.818 28.3399 114.382 27.3799 114.382 25.9959V18.0519H111.13V15.2799H114.382V12.0279H118.426V15.2799H122.806V18.0519H118.426V25.1079C118.426 25.8759 118.59 26.3799 118.918 26.6199C119.246 26.8599 119.702 26.9799 120.286 26.9799C120.878 26.9799 121.458 26.8799 122.026 26.6799V29.3439C121.034 29.5679 119.994 29.6799 118.906 29.6799ZM124.949 29.4999V10.6599H128.993V29.4999H124.949ZM138.392 29.6319C135.704 29.6319 133.824 28.9839 132.752 27.6879C131.672 26.3839 131.132 24.6119 131.132 22.3719C131.132 20.0839 131.676 18.3039 132.764 17.0319C133.844 15.7599 135.696 15.1239 138.32 15.1239C141.016 15.1239 142.884 15.7679 143.924 17.0559C144.956 18.3519 145.472 20.1239 145.472 22.3719C145.472 22.8119 145.444 23.2119 145.388 23.5719H134.66V21.1359H141.392C141.304 19.9199 141.056 19.0679 140.648 18.5799C140.096 18.0119 139.32 17.7279 138.32 17.7279C137.352 17.7279 136.56 18.0399 135.944 18.6639C135.336 19.2799 135.032 20.5199 135.032 22.3839C135.032 24.2079 135.336 25.4359 135.944 26.0679C136.544 26.7079 137.36 27.0279 138.392 27.0279V29.6319ZM138.392 27.0279C138.992 27.0279 139.488 26.9519 139.88 26.7999C140.28 26.6319 140.6 26.3639 140.84 25.9959C141.064 25.6119 141.26 25.1679 141.428 24.6639L145.04 25.6839C144.864 26.6199 144.484 27.3719 143.9 27.9399C143.308 28.5159 142.6 28.9399 141.776 29.2119C140.944 29.4919 139.816 29.6319 138.392 29.6319V27.0279ZM147.488 29.4999V15.2799H150.608L151.52 17.4159V29.4999H147.488ZM155.924 29.4999V21.5199C155.924 20.2159 155.768 19.2919 155.456 18.7479C155.152 18.2039 154.652 17.9319 153.956 17.9319C153.228 17.9319 152.632 18.2399 152.168 18.8559C151.712 19.4719 151.484 20.3999 151.484 21.6399L149.348 20.7879C149.348 19.4359 149.94 18.1599 151.124 16.9599C152.308 15.7599 153.7 15.1599 155.3 15.1599C157.156 15.1599 158.396 15.7599 159.02 16.9599C159.644 18.1519 159.956 19.5639 159.956 21.1959V29.4999H155.924ZM164.324 29.4999V21.5199C164.324 20.2159 164.176 19.2919 163.88 18.7479C163.584 18.2039 163.092 17.9319 162.404 17.9319C161.676 17.9319 161.084 18.2399 160.628 18.8559C160.172 19.4719 159.944 20.3999 159.944 21.6399L157.796 20.7879C157.796 19.4679 158.388 18.1999 159.572 16.9839C160.756 15.7679 162.148 15.1599 163.748 15.1599C165.604 15.1599 166.836 15.7599 167.444 16.9599C168.052 18.1519 168.356 19.5639 168.356 21.1959V29.4999H164.324ZM175.898 29.6439C175.034 29.6439 174.262 29.5759 173.582 29.4399C172.91 29.2959 172.338 29.0559 171.866 28.7199C171.388 28.3762 171.014 27.9069 170.786 27.3639C170.538 26.7959 170.414 26.0879 170.414 25.2399C170.414 24.4319 170.53 23.7559 170.762 23.2119C171.002 22.6679 171.35 22.2319 171.806 21.9039C172.27 21.5679 172.842 21.3279 173.522 21.1839C174.202 21.0319 174.986 20.9559 175.874 20.9559H180.362V20.4159C180.362 19.7759 180.246 19.2719 180.014 18.9039C179.789 18.5272 179.442 18.2391 179.03 18.0879C178.598 17.9199 178.086 17.8359 177.494 17.8359C177.022 17.8359 176.582 17.9119 176.174 18.0639C175.774 18.2079 175.43 18.4519 175.142 18.7959C174.854 19.1399 174.65 19.6039 174.53 20.1879L170.582 19.0959C170.75 18.3599 171.046 17.7399 171.47 17.2359C171.902 16.7239 172.426 16.3159 173.042 16.0119C173.692 15.697 174.383 15.4748 175.094 15.3519C175.854 15.2079 176.646 15.1359 177.47 15.1359C178.982 15.1359 180.254 15.3159 181.286 15.6759C182.318 16.0359 183.098 16.6199 183.626 17.4279C184.154 18.2279 184.418 19.2919 184.418 20.6199V29.4999H181.058L180.71 27.8679C180.582 28.0839 180.374 28.2959 180.086 28.5039C179.798 28.7119 179.446 28.9039 179.03 29.0799C178.572 29.2601 178.098 29.3968 177.614 29.4879C177.086 29.5919 176.514 29.6439 175.898 29.6439ZM176.81 27.0639C177.362 27.0639 177.874 26.9999 178.346 26.8719C178.772 26.7632 179.181 26.5934 179.558 26.3679C179.902 26.1519 180.15 25.9239 180.302 25.6839V23.1399H176.834C176.482 23.1399 176.162 23.1679 175.874 23.2239C175.61 23.2631 175.356 23.3571 175.13 23.4999C174.93 23.6359 174.774 23.8319 174.662 24.0879C174.558 24.3439 174.506 24.6759 174.506 25.0839C174.506 25.4919 174.562 25.8239 174.674 26.0799C174.786 26.3359 174.946 26.5359 175.154 26.6799C175.362 26.8159 175.606 26.9159 175.886 26.9799C176.166 27.0359 176.474 27.0639 176.81 27.0639ZM193.508 29.6799C192.244 29.6799 191.172 29.4119 190.292 28.8759C189.42 28.3399 188.984 27.3799 188.984 25.9959V18.0519H185.732V15.2799H188.984V12.0279H193.028V15.2799H197.408V18.0519H193.028V25.1079C193.028 25.8759 193.192 26.3799 193.52 26.6199C193.848 26.8599 194.304 26.9799 194.888 26.9799C195.48 26.9799 196.06 26.8799 196.628 26.6799V29.3439C195.636 29.5679 194.596 29.6799 193.508 29.6799ZM205.986 29.6319C203.298 29.6319 201.418 28.9839 200.346 27.6879C199.266 26.3839 198.726 24.6119 198.726 22.3719C198.726 20.0839 199.27 18.3039 200.358 17.0319C201.438 15.7599 203.29 15.1239 205.914 15.1239C208.61 15.1239 210.478 15.7679 211.518 17.0559C212.55 18.3519 213.066 20.1239 213.066 22.3719C213.066 22.8119 213.038 23.2119 212.982 23.5719H202.254V21.1359H208.986C208.898 19.9199 208.65 19.0679 208.242 18.5799C207.69 18.0119 206.914 17.7279 205.914 17.7279C204.946 17.7279 204.154 18.0399 203.538 18.6639C202.93 19.2799 202.626 20.5199 202.626 22.3839C202.626 24.2079 202.93 25.4359 203.538 26.0679C204.138 26.7079 204.954 27.0279 205.986 27.0279V29.6319ZM205.986 27.0279C206.586 27.0279 207.082 26.9519 207.474 26.7999C207.874 26.6319 208.194 26.3639 208.434 25.9959C208.658 25.6119 208.854 25.1679 209.022 24.6639L212.634 25.6839C212.458 26.6199 212.078 27.3719 211.494 27.9399C210.902 28.5159 210.194 28.9399 209.37 29.2119C208.538 29.4919 207.41 29.6319 205.986 29.6319V27.0279Z" fill="#0067EB" style="fill:rgb(0, 103, 235);stroke:none;color:rgb(11, 11, 11);stroke-width:1px;stroke-linecap:butt;stroke-linejoin:miter;opacity:1;font-family:&quot;Anthropic Sans&quot;, -apple-system, BlinkMacSystemFont, &quot;Segoe UI&quot;, sans-serif;font-size:16px;font-weight:400;text-anchor:start;dominant-baseline:auto"/>
</g>
<defs>
<clipPath id="clip0_3080_51">
<rect width="214" height="46" fill="white"/>
</clipPath>
</defs>
</svg>